<svg width="290" height="53" viewBox="0 0 290 53" fill="none" xmlns="http://www.w3.org/2000/svg">
<path fill-rule="evenodd" clip-rule="evenodd" d="M1.8999 40.7C8.9999 42.8 24.3999 40.2 29.4999 42.6C32.9999 44.2 34.6999 46.8 35.1999 50.6C32.3999 42.9 15.6999 48.6 8.3999 46.1C6.5999 45.5 4.0999 43 1.8999 40.7Z" fill="#5E2A29"/>
<path fill-rule="evenodd" clip-rule="evenodd" d="M31.9 1.5C17.2 17.8 13.5 24.9 24.9 34.7C16.5 25.3 33 18 33.8 10.1C34 8.1 33.6 5.4 31.9 1.5Z" fill="#F3C017"/>
<path fill-rule="evenodd" clip-rule="evenodd" d="M35.9 12.7C23.7 26.2 20.6 32.1 30.1 40.2C23.1 32.4 36.8 26.3 37.5 19.8C37.7 18.1 37.4 15.8 35.9 12.7Z" fill="#E36226"/>
<path fill-rule="evenodd" clip-rule="evenodd" d="M37.3997 24C28.8997 33.4 26.6997 37.6 33.3997 43.2C28.4997 37.8 38.0997 33.5 38.5997 29C38.5997 27.8 38.3997 26.2 37.3997 24Z" fill="#902A30"/>
<path fill-rule="evenodd" clip-rule="evenodd" d="M63.1 39C56.8 40.1 43.1 38.7 38.6 40C35.5 40.9 33.9 42.2 33.5 44.3C36 40.2 50.8 43.2 57.3 41.9C58.9 41.5 61.1 40.2 63.1 39Z" fill="#5E2A29"/>
<path d="M287.7 38.7H69.1997V39.2H287.7V38.7Z" fill="white"/>
<path d="M70.6997 20.9C69.9997 20.8 69.4997 20.6 69.1997 20.5V17.9H69.9997L70.5997 19.5C70.7997 19.8 71.1997 20 71.5997 20.1C71.9997 20.2 72.3997 20.3 72.8997 20.3C73.4997 20.3 73.9997 20.1 74.2997 19.8C74.5997 19.5 74.8997 19 74.8997 18.5C74.8997 18 74.6997 17.6 74.2997 17.2C73.8997 16.8 73.2997 16.4 72.5997 16C71.7997 15.6 71.1997 15.2 70.7997 14.9C70.3997 14.6 69.9997 14.2 69.6997 13.8C69.3997 13.4 69.2997 12.9 69.2997 12.4C69.2997 11.8 69.4997 11.2 69.7997 10.8C70.1997 10.4 70.5997 10 71.1997 9.8C71.7997 9.6 72.2997 9.5 72.8997 9.5C73.4997 9.5 74.0997 9.6 74.6997 9.7C75.2997 9.8 75.6997 9.9 75.9997 10.1V12.3H75.0997L74.4997 10.8C74.3997 10.7 74.0997 10.6 73.7997 10.5C73.4997 10.4 73.1997 10.4 72.8997 10.4C72.3997 10.4 71.8997 10.5 71.5997 10.8C71.1997 11 70.9997 11.4 70.9997 11.9C70.9997 12.4 71.1997 12.9 71.6997 13.3C72.0997 13.7 72.7997 14.1 73.6997 14.6C74.2997 14.9 74.8997 15.3 75.2997 15.6C75.6997 15.9 76.0997 16.3 76.3997 16.7C76.6997 17.1 76.7997 17.6 76.7997 18.1C76.7997 19.1 76.3997 19.9 75.6997 20.4C74.8997 20.9 73.9997 21.2 72.7997 21.2C72.0997 21.1 71.3997 21.1 70.6997 20.9Z" fill="white"/>
<path d="M78.9998 20V10.4L77.7998 10.1V9.4L80.4998 9L80.8998 9.2V12.6L80.7998 13.7C81.1998 13.4 81.6998 13.1 82.1998 12.9C82.6998 12.7 83.1998 12.6 83.5998 12.6C84.2998 12.6 84.7998 12.7 85.0998 13C85.4998 13.3 85.6998 13.7 85.7998 14.2C85.8998 14.7 85.9998 15.5 85.9998 16.4V20L86.9998 20.2V21H82.9998V20.2L84.1998 20V17C84.1998 16.2 84.1998 15.6 84.0998 15.2C83.9998 14.8 83.8998 14.4 83.6998 14.2C83.4998 14 83.0998 13.8 82.5998 13.8C81.8998 13.8 81.2998 14 80.8998 14.3V20L81.7998 20.2V21H77.9998V20.2L78.9998 20Z" fill="white"/>
<path d="M89.5995 20V14.5L88.5995 13.9V13.3L90.7995 12.6L91.1995 12.7V14C91.3995 13.7 91.6995 13.4 92.1995 13.1C92.6995 12.8 93.1995 12.7 93.5995 12.7C93.9995 12.7 94.1995 12.7 94.2995 12.8V14.6C93.8995 14.4 93.4995 14.3 92.9995 14.3C92.3995 14.3 91.8995 14.4 91.4995 14.7V20L93.3995 20.2V21H88.4995V20.2L89.5995 20Z" fill="white"/>
<path d="M98.3999 12.7V20L99.4999 20.2V21H95.3999V20.2L96.5999 20V14.5L95.5999 13.8V13.3L97.9999 12.6L98.3999 12.7ZM98.2999 9.00001C98.4999 9.20001 98.5999 9.50001 98.5999 9.80001C98.5999 10.2 98.4999 10.5 98.1999 10.7C97.8999 10.9 97.5999 11 97.1999 11C96.8999 11 96.5999 10.9 96.3999 10.7C96.1999 10.5 96.0999 10.2 96.0999 9.90001C96.0999 9.50001 96.1999 9.20001 96.4999 9.00001C96.7999 8.80001 97.0999 8.60001 97.3999 8.60001C97.7999 8.70001 98.0999 8.80001 98.2999 9.00001Z" fill="white"/>
<path d="M101.9 20V14.5L100.9 13.9V13.3L103.1 12.6L103.5 12.7V13.8C103.8 13.5 104.3 13.2 104.8 13C105.3 12.8 105.8 12.6 106.3 12.6C106.9 12.6 107.3 12.6 107.7 12.8C108.1 13 108.3 13.3 108.5 13.7C108.9 13.4 109.3 13.1 109.9 12.9C110.4 12.7 111 12.6 111.5 12.6C112.4 12.6 113 12.9 113.4 13.4C113.8 14 114 14.8 114 16V20L115.2 20.2V21H111.3V20.2L112.2 20V16.3C112.2 15.7 112.2 15.2 112.1 14.8C112 14.4 111.9 14.2 111.6 14C111.3 13.8 111 13.7 110.6 13.7C110.3 13.7 110 13.7 109.7 13.8C109.4 13.9 109.1 14 108.8 14.2C108.9 14.6 108.9 15.1 108.9 15.7V20L110 20.2V21H106V20.2L107.1 20V16.3C107.1 15.7 107.1 15.3 107 14.9C106.9 14.5 106.8 14.3 106.5 14.1C106.3 13.9 106 13.9 105.6 13.9C105.3 13.9 105 13.9 104.7 14.1C104.4 14.2 104.1 14.4 103.8 14.6V20L104.8 20.2V21H100.9V20.2L101.9 20Z" fill="white"/>
<path d="M122.2 13.2C122.7 13.6 123 14.3 123 15.4V20.2H123.9V20.8C123.7 20.9 123.5 21 123.2 21.1C122.9 21.2 122.6 21.2 122.3 21.2C121.9 21.2 121.7 21.1 121.5 21C121.3 20.9 121.3 20.6 121.2 20.3C120.6 20.9 119.9 21.2 118.9 21.2C118.4 21.2 117.9 21.1 117.5 20.9C117.1 20.7 116.8 20.4 116.6 20.1C116.4 19.8 116.3 19.4 116.3 18.9C116.3 18.2 116.5 17.7 117 17.3C117.5 16.9 118.1 16.6 118.8 16.4C119.5 16.2 120.3 16.1 121 16.1V15.6C121 14.9 120.8 14.4 120.5 14.2C120.2 13.9 119.7 13.8 119.1 13.8C118.8 13.8 118.4 13.9 118 14C117.6 14.1 117.2 14.2 116.9 14.4L116.6 13.6C116.9 13.3 117.4 13.1 118.1 12.9C118.7 12.7 119.3 12.7 119.8 12.7C120.9 12.6 121.6 12.8 122.2 13.2ZM119.1 17.3C118.5 17.6 118.2 18 118.2 18.6C118.2 19.6 118.7 20.1 119.7 20.1C119.9 20.1 120.2 20.1 120.4 19.9C120.7 19.8 120.9 19.7 121 19.5V16.9C120.4 16.9 119.7 17 119.1 17.3Z" fill="white"/>
<path d="M132.2 9.20001V20.2H133.2V20.8C133 20.9 132.8 21 132.4 21.1C132 21.2 131.7 21.2 131.4 21.2C131.1 21.2 130.9 21.1 130.7 21C130.6 20.9 130.5 20.7 130.4 20.4C130.2 20.6 129.9 20.8 129.4 20.9C129 21.1 128.5 21.1 128 21.1C127.4 21.1 126.8 20.9 126.3 20.6C125.8 20.3 125.4 19.8 125.1 19.2C124.8 18.6 124.7 17.8 124.7 17C124.7 16.2 124.9 15.4 125.3 14.7C125.7 14 126.2 13.5 126.9 13.1C127.6 12.7 128.3 12.5 129.1 12.5C129.6 12.5 129.9 12.6 130.3 12.7V10.5L128.7 10.2V9.40001L131.7 9.10001L132.2 9.20001ZM127.8 13.8C127.4 14 127.1 14.4 126.9 14.9C126.7 15.4 126.6 16 126.6 16.7C126.6 17.4 126.7 18 126.9 18.5C127.1 19 127.4 19.4 127.7 19.7C128 20 128.4 20.1 128.8 20.1C129.1 20.1 129.4 20.1 129.7 20C130 19.9 130.2 19.8 130.4 19.7V13.9C130 13.6 129.6 13.4 129 13.4C128.5 13.4 128.2 13.5 127.8 13.8Z" fill="white"/>
<path d="M145.4 10.2C146.1 10.7 146.5 11.4 146.5 12.5C146.5 13.3 146.3 14 145.9 14.6C145.5 15.2 144.9 15.6 144.1 15.9C144.1 15.9 144.2 16 144.3 16C144.6 16.2 144.9 16.5 145.1 16.9C145.3 17.3 145.7 17.8 146.1 18.5C146.4 19 146.6 19.4 146.8 19.6C147 19.9 147.1 20 147.3 20.1L148.2 20.3V21H145.7C145.5 21 145.4 20.8 145.2 20.5C145 20.2 144.8 19.7 144.5 19.1C144.1 18.2 143.7 17.4 143.4 16.9C143.1 16.4 142.7 16.1 142.3 16.1H141.2V19.9L142.7 20.1V21H138V20.2L139.3 20V10.8L138.1 10.7V9.7H139.9C140.1 9.7 140.3 9.7 140.5 9.7C140.7 9.7 140.9 9.7 141 9.7C141.6 9.7 142.1 9.6 142.5 9.6C143.7 9.5 144.7 9.7 145.4 10.2ZM141.9 10.4C141.5 10.4 141.2 10.5 141.1 10.5V15.1C141.3 15.1 141.7 15.1 142.2 15.1C143 15.1 143.6 14.9 144.1 14.5C144.5 14.1 144.7 13.5 144.7 12.6C144.7 11.9 144.5 11.3 144.1 10.9C143.7 10.5 143.1 10.3 142.2 10.3C142.1 10.4 142 10.4 141.9 10.4Z" fill="white"/>
<path d="M154.6 13.2C155.1 13.6 155.4 14.3 155.4 15.4V20.2H156.3V20.8C156.1 20.9 155.9 21 155.6 21.1C155.3 21.2 155 21.2 154.7 21.2C154.3 21.2 154.1 21.1 153.9 21C153.7 20.9 153.7 20.6 153.6 20.3C153 20.9 152.3 21.2 151.3 21.2C150.8 21.2 150.3 21.1 149.9 20.9C149.5 20.7 149.2 20.4 149 20.1C148.8 19.8 148.7 19.4 148.7 18.9C148.7 18.2 148.9 17.7 149.4 17.3C149.9 16.9 150.5 16.6 151.2 16.4C151.9 16.2 152.7 16.1 153.4 16.1V15.6C153.4 14.9 153.2 14.4 152.9 14.2C152.6 13.9 152.1 13.8 151.5 13.8C151.2 13.8 150.8 13.9 150.4 14C150 14.1 149.6 14.2 149.3 14.4L149 13.6C149.3 13.3 149.8 13.1 150.5 12.9C151.1 12.7 151.7 12.7 152.2 12.7C153.4 12.6 154.1 12.8 154.6 13.2ZM151.6 17.3C151 17.6 150.7 18 150.7 18.6C150.7 19.6 151.2 20.1 152.2 20.1C152.4 20.1 152.7 20.1 152.9 19.9C153.2 19.8 153.4 19.7 153.5 19.5V16.9C152.8 16.9 152.2 17 151.6 17.3Z" fill="white"/>
<path d="M160.5 12.8V21.2C160.5 22.3 160.3 23.2 159.8 23.9C159.3 24.6 158.7 24.9 157.8 24.9C157.6 24.9 157.4 24.9 157.2 24.8C157 24.8 156.8 24.7 156.8 24.7V23.6C156.9 23.6 157 23.6 157.2 23.7C157.4 23.7 157.5 23.7 157.7 23.7C158.1 23.7 158.4 23.5 158.6 23.1C158.8 22.7 158.8 22 158.8 21.1V14.7L157.9 14V13.5L160.2 12.8H160.5ZM160.3 8.8C160.5 9 160.6 9.3 160.6 9.6C160.6 10 160.5 10.3 160.2 10.5C159.9 10.7 159.6 10.9 159.2 10.9C158.9 10.9 158.6 10.8 158.4 10.6C158.2 10.4 158.1 10.1 158.1 9.8C158.1 9.5 158.2 9.2 158.5 8.9C158.8 8.6 159.1 8.5 159.4 8.5C159.8 8.5 160.1 8.6 160.3 8.8Z" fill="white"/>
<path d="M167.8 12.6C168.2 12.7 168.6 12.8 168.8 12.9V14.9H167.9L167.4 13.8C167.2 13.6 166.8 13.5 166.3 13.5C165.7 13.5 165.1 13.8 164.7 14.3C164.3 14.8 164.1 15.6 164.1 16.5C164.1 17.2 164.2 17.9 164.5 18.4C164.7 18.9 165 19.3 165.4 19.6C165.8 19.9 166.2 20 166.7 20C167.1 20 167.5 20 167.9 19.9C168.3 19.8 168.6 19.7 168.8 19.6L169.1 20.3C168.8 20.6 168.3 20.8 167.8 21C167.3 21.2 166.7 21.2 166 21.2C165.2 21.2 164.6 21 164 20.7C163.4 20.4 163 19.9 162.7 19.2C162.4 18.5 162.3 17.9 162.3 17.1C162.3 16.2 162.5 15.4 162.9 14.8C163.3 14.1 163.8 13.6 164.4 13.2C165 12.8 165.8 12.6 166.6 12.6C166.9 12.5 167.3 12.5 167.8 12.6Z" fill="white"/>
<path d="M171.1 20V10.4L169.9 10.1V9.40001L172.5 9.10001L172.9 9.30001V12.7L172.8 13.8C173.2 13.5 173.7 13.2 174.2 13C174.7 12.8 175.2 12.7 175.6 12.7C176.3 12.7 176.8 12.8 177.1 13.1C177.5 13.4 177.7 13.8 177.8 14.3C177.9 14.8 178 15.6 178 16.5V20L179 20.2V21H174.9V20.2L176.1 20V17C176.1 16.2 176.1 15.6 176 15.2C175.9 14.8 175.8 14.4 175.6 14.2C175.4 14 175 13.8 174.5 13.8C173.8 13.8 173.2 14 172.8 14.3V20L173.7 20.2V21H170V20.2L171.1 20Z" fill="white"/>
<path d="M186.3 13.2C186.8 13.6 187.1 14.3 187.1 15.4V20.2H188V20.8C187.8 20.9 187.6 21 187.3 21.1C187 21.2 186.7 21.2 186.4 21.2C186 21.2 185.8 21.1 185.6 21C185.4 20.9 185.4 20.6 185.3 20.3C184.7 20.9 184 21.2 183 21.2C182.5 21.2 182 21.1 181.6 20.9C181.2 20.7 180.9 20.4 180.7 20.1C180.5 19.8 180.4 19.4 180.4 18.9C180.4 18.2 180.6 17.7 181.1 17.3C181.6 16.9 182.2 16.6 182.9 16.4C183.6 16.2 184.4 16.1 185.1 16.1V15.6C185.1 14.9 184.9 14.4 184.6 14.2C184.3 13.9 183.8 13.8 183.2 13.8C182.9 13.8 182.5 13.9 182.1 14C181.7 14.1 181.3 14.2 181 14.4L180.7 13.6C181 13.3 181.5 13.1 182.2 12.9C182.8 12.7 183.4 12.7 183.9 12.7C185 12.6 185.8 12.8 186.3 13.2ZM183.2 17.3C182.6 17.6 182.3 18 182.3 18.6C182.3 19.6 182.8 20.1 183.8 20.1C184 20.1 184.3 20.1 184.5 19.9C184.8 19.8 185 19.7 185.1 19.5V16.9C184.5 16.9 183.8 17 183.2 17.3Z" fill="white"/>
<path d="M190.4 20V14.5L189.4 13.9V13.3L191.6 12.6L192 12.7V13.8C192.4 13.5 192.9 13.2 193.4 12.9C194 12.7 194.5 12.6 195 12.6C195.9 12.6 196.5 12.9 196.8 13.4C197.1 13.9 197.3 14.8 197.3 16V20L198.4 20.2V21H194.4V20.2L195.5 20V16.2C195.5 15.6 195.5 15.1 195.4 14.8C195.3 14.5 195.2 14.2 194.9 14.1C194.7 13.9 194.4 13.9 193.9 13.9C193.6 13.9 193.3 14 193 14.1C192.7 14.2 192.4 14.3 192.1 14.6V20L193.1 20.2V21H189.3V20.2L190.4 20Z" fill="white"/>
<path d="M207.2 9.20001V20.2H208.2V20.8C208 20.9 207.8 21 207.4 21.1C207 21.2 206.7 21.2 206.4 21.2C206.1 21.2 205.9 21.1 205.7 21C205.6 20.9 205.5 20.7 205.4 20.4C205.2 20.6 204.9 20.8 204.4 20.9C204 21.1 203.5 21.1 203 21.1C202.4 21.1 201.8 20.9 201.3 20.6C200.8 20.3 200.4 19.8 200.1 19.2C199.8 18.6 199.7 17.8 199.7 17C199.7 16.2 199.9 15.4 200.3 14.7C200.7 14 201.2 13.5 201.9 13.1C202.6 12.7 203.3 12.5 204.1 12.5C204.6 12.5 204.9 12.6 205.3 12.7V10.5L203.7 10.2V9.40001L206.7 9.10001L207.2 9.20001ZM202.8 13.8C202.4 14 202.1 14.4 201.9 14.9C201.7 15.4 201.6 16 201.6 16.7C201.6 17.4 201.7 18 201.9 18.5C202.1 19 202.4 19.4 202.7 19.7C203 20 203.4 20.1 203.8 20.1C204.1 20.1 204.4 20.1 204.7 20C205 19.9 205.2 19.8 205.4 19.7V13.9C205 13.6 204.6 13.4 204 13.4C203.6 13.4 203.2 13.5 202.8 13.8Z" fill="white"/>
<path d="M210.7 20V14.5L209.7 13.9V13.3L211.9 12.6L212.3 12.7V14C212.5 13.7 212.8 13.4 213.3 13.1C213.8 12.8 214.3 12.7 214.7 12.7C215.1 12.7 215.3 12.7 215.4 12.8V14.6C215 14.4 214.6 14.3 214.1 14.3C213.5 14.3 213 14.4 212.6 14.7V20L214.5 20.2V21H209.6V20.2L210.7 20Z" fill="white"/>
<path d="M222.4 13.2C222.9 13.6 223.2 14.3 223.2 15.4V20.2H224.1V20.8C223.9 20.9 223.7 21 223.4 21.1C223.1 21.2 222.8 21.2 222.5 21.2C222.1 21.2 221.9 21.1 221.7 21C221.5 20.9 221.5 20.6 221.4 20.3C220.8 20.9 220.1 21.2 219.1 21.2C218.6 21.2 218.1 21.1 217.7 20.9C217.3 20.7 217 20.4 216.8 20.1C216.6 19.8 216.5 19.4 216.5 18.9C216.5 18.2 216.7 17.7 217.2 17.3C217.7 16.9 218.3 16.6 219 16.4C219.7 16.2 220.5 16.1 221.2 16.1V15.6C221.2 14.9 221 14.4 220.7 14.2C220.4 13.9 219.9 13.8 219.3 13.8C219 13.8 218.6 13.9 218.2 14C217.8 14.1 217.4 14.2 217.1 14.4L216.8 13.6C217.1 13.3 217.6 13.1 218.3 12.9C218.9 12.7 219.5 12.7 220 12.7C221.1 12.6 221.8 12.8 222.4 13.2ZM219.3 17.3C218.7 17.6 218.4 18 218.4 18.6C218.4 19.6 218.9 20.1 219.9 20.1C220.1 20.1 220.4 20.1 220.6 19.9C220.9 19.8 221.1 19.7 221.2 19.5V16.9C220.6 16.9 219.9 17 219.3 17.3Z" fill="white"/>
<path d="M229.8 19.9L230.4 10.7L229 10.6V9.60001H233L235.3 16.8L235.6 18L235.9 16.8L238.1 9.60001H241.7V10.6L240.3 10.7L241.1 19.9L242.3 20.2V21H238.1V20.2L239.3 19.9L238.8 13.5V10.8L238.5 11.9L235.6 21H234.9L232.2 13.3C232 12.6 231.7 11.8 231.4 10.8V13.1L231.1 19.9L232.5 20.2V21H228.5V20.2L229.8 19.9Z" fill="white"/>
<path d="M246.6 12.7V20L247.7 20.2V21H243.6V20.2L244.8 20V14.5L243.8 13.8V13.3L246.2 12.6L246.6 12.7ZM246.5 9C246.7 9.2 246.8 9.5 246.8 9.8C246.8 10.2 246.7 10.5 246.4 10.7C246.1 10.9 245.8 11.1 245.5 11.1C245.2 11.1 244.9 11 244.7 10.8C244.5 10.6 244.4 10.3 244.4 10C244.4 9.6 244.5 9.3 244.8 9.1C245.1 8.9 245.4 8.7 245.7 8.7C246 8.7 246.3 8.8 246.5 9Z" fill="white"/>
<path d="M250.1 18.7L250.5 19.6C250.8 19.8 251 20 251.3 20.1C251.5 20.2 251.8 20.3 252.2 20.3C252.7 20.3 253.1 20.2 253.4 20C253.7 19.8 253.8 19.5 253.8 19.1C253.8 18.8 253.7 18.6 253.4 18.4C253.1 18.2 252.7 18 252.2 17.7L251.8 17.5C251 17.1 250.5 16.8 250 16.3C249.6 15.9 249.4 15.4 249.4 14.8C249.4 14.3 249.6 13.9 249.9 13.5C250.2 13.2 250.6 12.9 251.1 12.7C251.6 12.5 252.1 12.4 252.6 12.4C253 12.4 253.5 12.4 253.9 12.5C254.3 12.6 254.7 12.7 255 12.8V14.5H254L253.7 13.6C253.3 13.2 252.9 13 252.5 13C252.1 13 251.7 13.1 251.5 13.3C251.3 13.5 251.1 13.7 251.1 14.1C251.1 14.4 251.2 14.6 251.4 14.8C251.6 15 251.8 15.2 252 15.3C252.2 15.4 252.6 15.6 253.2 15.9C253.7 16.1 254.1 16.4 254.4 16.5C254.7 16.7 255 16.9 255.2 17.2C255.4 17.5 255.5 17.9 255.5 18.3C255.5 19.1 255.2 19.8 254.5 20.2C253.8 20.6 253 20.9 252 20.9C251.5 20.9 251.1 20.8 250.6 20.7C250.1 20.6 249.7 20.4 249.3 20.2V18.4H250.1V18.7Z" fill="white"/>
<path d="M257.8 18.7L258.2 19.6C258.5 19.8 258.7 20 259 20.1C259.2 20.2 259.5 20.3 259.9 20.3C260.4 20.3 260.8 20.2 261.1 20C261.4 19.8 261.5 19.5 261.5 19.1C261.5 18.8 261.4 18.6 261.1 18.4C260.8 18.2 260.4 18 259.9 17.7L259.5 17.5C258.7 17.1 258.2 16.8 257.7 16.3C257.3 15.9 257.1 15.4 257.1 14.8C257.1 14.3 257.3 13.9 257.6 13.5C257.9 13.2 258.3 12.9 258.8 12.7C259.3 12.5 259.8 12.4 260.3 12.4C260.7 12.4 261.2 12.4 261.6 12.5C262 12.6 262.4 12.7 262.7 12.8V14.5H261.8L261.5 13.6C261.1 13.2 260.7 13 260.3 13C259.9 13 259.5 13.1 259.3 13.3C259.1 13.5 258.9 13.7 258.9 14.1C258.9 14.4 259 14.6 259.2 14.8C259.4 15 259.6 15.2 259.8 15.3C260 15.4 260.4 15.6 261 15.9C261.5 16.1 261.9 16.4 262.2 16.5C262.5 16.7 262.8 16.9 263 17.2C263.2 17.5 263.3 17.9 263.3 18.3C263.3 19.1 263 19.8 262.3 20.2C261.6 20.6 260.8 20.9 259.8 20.9C259.3 20.9 258.9 20.8 258.4 20.7C257.9 20.6 257.5 20.4 257.1 20.2V18.4H257.8V18.7Z" fill="white"/>
<path d="M267.5 12.7V20L268.6 20.2V21H264.5V20.2L265.7 20V14.5L264.7 13.8V13.3L267.1 12.6L267.5 12.7ZM267.4 9C267.6 9.2 267.7 9.5 267.7 9.8C267.7 10.2 267.599 10.5 267.299 10.7C266.999 10.9 266.7 11.1 266.4 11.1C266.1 11.1 265.8 11 265.6 10.8C265.4 10.6 265.299 10.3 265.299 10C265.299 9.6 265.4 9.3 265.7 9.1C266 8.9 266.3 8.7 266.6 8.7C266.9 8.7 267.2 8.8 267.4 9Z" fill="white"/>
<path d="M276.5 13.6C277.1 14.4 277.5 15.4 277.5 16.6C277.5 17.5 277.3 18.3 277 18.9C276.6 19.6 276.2 20.1 275.6 20.5C275 20.9 274.3 21.1 273.5 21.1C272.2 21.1 271.2 20.7 270.6 19.9C270 19.1 269.6 18.1 269.6 16.8C269.6 15.9 269.8 15.2 270.2 14.5C270.6 13.8 271.1 13.3 271.7 13C272.3 12.7 273 12.5 273.8 12.5C274.9 12.5 275.8 12.9 276.5 13.6ZM271.5 16.6C271.5 17.6 271.7 18.4 272 19.1C272.3 19.8 272.8 20.2 273.5 20.2C274.2 20.2 274.7 19.9 275.1 19.3C275.5 18.7 275.6 17.9 275.6 16.8C275.6 15.8 275.4 15 275.1 14.3C274.8 13.7 274.3 13.4 273.6 13.4C272.1 13.4 271.5 14.5 271.5 16.6Z" fill="white"/>
<path d="M279.5 20V14.5L278.5 13.9V13.3L280.7 12.6L281.1 12.7V13.8C281.5 13.5 282 13.2 282.5 12.9C283.1 12.7 283.6 12.6 284.1 12.6C285 12.6 285.6 12.9 285.9 13.4C286.2 13.9 286.4 14.8 286.4 16V20L287.5 20.2V21H283.5V20.2L284.6 20V16.2C284.6 15.6 284.6 15.1 284.5 14.8C284.4 14.5 284.3 14.2 284 14.1C283.8 13.9 283.5 13.9 283 13.9C282.7 13.9 282.4 14 282.1 14.1C281.8 14.2 281.5 14.3 281.2 14.6V20L282.2 20.2V21H278.4V20.2L279.5 20Z" fill="white"/>
<path d="M229.4 31.9V25.8L228.7 25.7V25H230.2C230.4 25 230.8 25 231.2 25C231.3 25 231.4 25 231.6 25C231.8 25 231.9 25 232.1 25C233.3 25 234.3 25.3 234.9 25.9C235.5 26.5 235.8 27.4 235.8 28.6C235.8 29.4 235.6 30.1 235.3 30.7C235 31.3 234.5 31.8 233.9 32.1C233.3 32.4 232.7 32.6 231.9 32.6C231.7 32.6 231.5 32.6 231.2 32.6C230.9 32.6 230.6 32.6 230.3 32.6H228.8V32L229.4 31.9ZM231.7 32C231.8 32 232 32 232 32C232.4 32 232.8 31.8 233.1 31.6C233.4 31.3 233.7 31 233.8 30.5C234 30 234.1 29.5 234.1 28.9C234.1 27.8 233.9 27 233.5 26.5C233.1 25.9 232.5 25.7 231.7 25.7C231.5 25.7 231.3 25.7 231.2 25.7C231.1 25.7 230.9 25.7 230.8 25.8V31.9C231 32 231.3 32 231.7 32Z" fill="white"/>
<path d="M237.2 32V25.8L236.4 25.6V25L238.3 24.8L238.6 24.9V27.2L238.5 27.9C238.8 27.7 239.1 27.5 239.4 27.4C239.7 27.3 240 27.2 240.4 27.2C240.8 27.2 241.2 27.3 241.4 27.5C241.6 27.7 241.8 28 241.9 28.3C242 28.7 242 29.2 242 29.8V32L242.7 32.1V32.7H239.8V32.1L240.6 32V30C240.6 29.5 240.6 29.1 240.5 28.9C240.5 28.6 240.4 28.4 240.2 28.3C240.1 28.1 239.8 28.1 239.5 28.1C239.3 28.1 239.1 28.1 239 28.2C238.9 28.3 238.7 28.3 238.5 28.4V32L239.1 32.1V32.7H236.4V32.1L237.2 32Z" fill="white"/>
<path d="M247.6 27.5C248 27.8 248.1 28.3 248.1 29V32.1H248.7V32.5C248.6 32.6 248.4 32.6 248.2 32.7C248 32.7 247.8 32.8 247.6 32.8C247.1 32.8 246.9 32.6 246.8 32.2C246.4 32.6 245.9 32.8 245.3 32.8C244.8 32.8 244.3 32.7 244 32.4C243.7 32.1 243.5 31.7 243.5 31.3C243.5 30.9 243.7 30.5 244 30.2C244.3 29.9 244.7 29.7 245.2 29.6C245.7 29.5 246.2 29.4 246.7 29.4V29.2C246.7 28.8 246.6 28.5 246.4 28.3C246.2 28.1 245.9 28 245.5 28C245.3 28 245 28 244.7 28.1C244.4 28.2 244.2 28.3 244 28.4L243.7 27.8C243.9 27.6 244.3 27.5 244.7 27.4C245.1 27.3 245.5 27.2 245.9 27.2C246.7 27.1 247.2 27.2 247.6 27.5ZM245.5 30.2C245.1 30.4 245 30.7 245 31C245 31.6 245.3 31.9 246 31.9C246.1 31.9 246.3 31.9 246.4 31.8C246.5 31.8 246.7 31.7 246.8 31.6V29.9C246.3 30 245.8 30.1 245.5 30.2Z" fill="white"/>
<path d="M250.2 32V28.5L249.5 28V27.5L251.1 27L251.4 27.1V28C251.5 27.8 251.7 27.5 252 27.3C252.3 27.1 252.6 27 252.9 27C253.2 27 253.3 27 253.4 27V28.3C253.3 28.2 253.2 28.2 253 28.2C252.8 28.2 252.7 28.1 252.5 28.1C252.1 28.1 251.8 28.2 251.6 28.3V31.8L252.8 32V32.6H249.5V32H250.2Z" fill="white"/>
<path d="M258.2 27.5C258.6 27.8 258.7 28.3 258.7 29V32.1H259.3V32.5C259.2 32.6 259 32.6 258.8 32.7C258.6 32.7 258.4 32.8 258.2 32.8C257.7 32.8 257.5 32.6 257.4 32.2C257 32.6 256.5 32.8 255.9 32.8C255.4 32.8 254.9 32.7 254.6 32.4C254.3 32.1 254.1 31.7 254.1 31.3C254.1 30.9 254.3 30.5 254.6 30.2C254.9 29.9 255.3 29.7 255.8 29.6C256.3 29.5 256.8 29.4 257.3 29.4V29.2C257.3 28.8 257.2 28.5 257 28.3C256.8 28.1 256.5 28 256.1 28C255.9 28 255.6 28 255.3 28.1C255 28.2 254.8 28.3 254.6 28.4L254.3 27.8C254.5 27.6 254.9 27.5 255.3 27.4C255.7 27.3 256.1 27.2 256.5 27.2C257.3 27.1 257.8 27.2 258.2 27.5ZM256.1 30.2C255.7 30.4 255.6 30.7 255.6 31C255.6 31.6 255.9 31.9 256.6 31.9C256.7 31.9 256.9 31.9 257 31.8C257.1 31.8 257.3 31.7 257.4 31.6V29.9C256.9 30 256.5 30.1 256.1 30.2Z" fill="white"/>
<path d="M260.8 32V28.5L260.1 28V27.5L261.7 27L262 27.1V27.8C262.2 27.6 262.5 27.4 262.8 27.2C263.1 27 263.5 27 263.8 26.9C264.2 26.9 264.5 26.9 264.8 27.1C265.1 27.2 265.2 27.4 265.4 27.7C265.7 27.5 266 27.3 266.3 27.2C266.6 27.1 267 27 267.3 27C267.9 27 268.3 27.2 268.6 27.6C268.9 28 269 28.6 269 29.4V32L269.8 32.1V32.7H267V32.1L267.6 32V29.6C267.6 29.2 267.6 28.9 267.5 28.7C267.4 28.5 267.4 28.3 267.2 28.2C267.1 28.1 266.8 28 266.5 28C266.2 28 265.9 28.1 265.5 28.3C265.6 28.5 265.6 28.9 265.6 29.3V32L266.3 32.1V32.7H263.5V32.1L264.2 32V29.6C264.2 29 264.1 28.6 264 28.4C263.9 28.2 263.6 28 263.2 28C263 28 262.8 28 262.7 28.1C262.5 28.2 262.3 28.3 262.2 28.4V32L262.9 32.1V32.7H260.2V32.1L260.8 32Z" fill="white"/>
<path d="M275.6 27.7C276 28.2 276.2 28.8 276.2 29.7C276.2 30.3 276.1 30.8 275.8 31.2C275.5 31.7 275.2 32 274.7 32.3C274.2 32.6 273.8 32.7 273.2 32.7C273.1 32.7 272.9 32.7 272.8 32.7C272.7 32.7 272.5 32.7 272.5 32.7V33.7V34.4L273.5 34.5V35.1H270.5V34.5L271.1 34.4V28.4L270.4 27.9V27.4L272 26.9L272.3 27V27.6C272.4 27.4 272.6 27.2 273 27.1C273.3 27 273.6 26.9 274 26.9C274.7 27 275.3 27.3 275.6 27.7ZM273 27.9C272.8 28 272.7 28.1 272.6 28.2V31.7C272.7 31.8 272.8 31.9 273 32C273.2 32.1 273.4 32.1 273.6 32.1C273.9 32.1 274.1 32 274.3 31.8C274.5 31.6 274.7 31.4 274.8 31C274.9 30.7 275 30.3 275 29.9C275 29.2 274.9 28.7 274.6 28.4C274.3 28 274 27.9 273.6 27.9C273.3 27.8 273.1 27.9 273 27.9Z" fill="white"/>
<path d="M277.1 27.9V27.4L278.7 27L278.9 27.1V30.5C278.9 31 279 31.4 279.1 31.6C279.2 31.8 279.5 31.9 279.8 31.9C280 31.9 280.2 31.9 280.4 31.8C280.6 31.7 280.8 31.6 280.9 31.5V28.2L280.3 27.9V27.3L282.1 26.9L282.3 27V32H282.9V32.5C282.8 32.6 282.6 32.6 282.4 32.7C282.1 32.8 281.9 32.8 281.8 32.8C281.6 32.8 281.5 32.8 281.3 32.7C281.2 32.6 281.1 32.5 281.1 32.3V32C280.9 32.2 280.6 32.4 280.3 32.5C280 32.6 279.7 32.7 279.4 32.7C278.9 32.7 278.6 32.6 278.3 32.4C278 32.2 277.9 32 277.8 31.7C277.7 31.4 277.7 31 277.7 30.5V28.1L277.1 27.9Z" fill="white"/>
<path d="M284.5 32V28.5L283.8 28V27.5L285.4 27L285.7 27.1V28C285.8 27.8 286 27.5 286.3 27.3C286.6 27.1 286.9 27 287.2 27C287.5 27 287.6 27 287.7 27V28.3C287.6 28.2 287.5 28.2 287.3 28.2C287.1 28.2 287 28.1 286.8 28.1C286.4 28.1 286.1 28.2 285.9 28.3V31.8L287.1 32V32.6H283.8V32H284.5Z" fill="white"/>
</svg>
