<svg id="Group_9239" data-name="Group 9239" xmlns="http://www.w3.org/2000/svg" xmlns:xlink="http://www.w3.org/1999/xlink" width="275.299" height="275.299" viewBox="0 0 275.299 275.299">
  <defs>
    <linearGradient id="linear-gradient" x1="0.5" x2="0.5" y2="1" gradientUnits="objectBoundingBox">
      <stop offset="0" stop-color="#61fd7d"/>
      <stop offset="1" stop-color="#2bb826"/>
    </linearGradient>
  </defs>
  <path id="Path_5277" data-name="Path 5277" d="M275.256,206.415c0,1.507-.046,4.776-.137,7.3-.222,6.178-.711,14.151-1.452,17.784a59.241,59.241,0,0,1-4.985,14.9,53.045,53.045,0,0,1-23.355,23.33,59.358,59.358,0,0,1-14.986,4.987c-3.6.726-11.509,1.207-17.648,1.425-2.528.09-5.8.136-7.3.136l-135.554-.022c-1.507,0-4.776-.046-7.3-.137-6.179-.221-14.151-.711-17.784-1.452a59.25,59.25,0,0,1-14.9-4.985A53.047,53.047,0,0,1,6.527,246.327,59.344,59.344,0,0,1,1.54,231.341c-.726-3.6-1.206-11.509-1.425-17.649-.09-2.527-.135-5.8-.135-7.3L0,70.84c0-1.507.046-4.776.137-7.3C.36,57.36.849,49.387,1.59,45.755a59.231,59.231,0,0,1,4.985-14.9A53.046,53.046,0,0,1,29.929,7.525,59.369,59.369,0,0,1,44.916,2.538c3.6-.726,11.509-1.207,17.648-1.425,2.528-.09,5.8-.135,7.3-.135L205.417,1c1.508,0,4.776.046,7.3.137,6.179.222,14.151.711,17.784,1.452a59.233,59.233,0,0,1,14.9,4.985,53.044,53.044,0,0,1,23.329,23.355,59.345,59.345,0,0,1,4.987,14.986c.726,3.6,1.206,11.509,1.425,17.649.09,2.528.135,5.8.135,7.3l-.022,135.554Z" transform="translate(0.02 -0.978)" fill="url(#linear-gradient)"/>
  <path id="Path_5278" data-name="Path 5278" d="M322.627,164.53A98.728,98.728,0,0,0,167.251,283.607l-14.005,51.14,52.333-13.723a98.675,98.675,0,0,0,47.176,12.012h.04A98.725,98.725,0,0,0,322.627,164.53ZM252.8,316.368h-.033A81.945,81.945,0,0,1,211,304.935l-3-1.777L176.948,311.3l8.289-30.269-1.951-3.1A82.056,82.056,0,1,1,252.8,316.368ZM297.8,254.936c-2.467-1.234-14.594-7.2-16.855-8.023s-3.905-1.234-5.55,1.235-6.371,8.023-7.811,9.668-2.878,1.852-5.344.618-10.414-3.838-19.836-12.239a74.3,74.3,0,0,1-13.722-17.082c-1.439-2.469-.153-3.8,1.081-5.033,1.109-1.1,2.467-2.88,3.7-4.32a16.829,16.829,0,0,0,2.466-4.114,4.54,4.54,0,0,0-.205-4.32c-.617-1.234-5.55-13.371-7.606-18.309-2-4.808-4.036-4.158-5.55-4.233-1.437-.071-3.083-.087-4.728-.087a9.062,9.062,0,0,0-6.578,3.086c-2.261,2.469-8.633,8.434-8.633,20.571s8.838,23.863,10.072,25.508S230.1,264.415,254.842,275.1A141.786,141.786,0,0,0,268.9,280.29a33.832,33.832,0,0,0,15.537.977c4.739-.708,14.594-5.965,16.65-11.725s2.055-10.7,1.438-11.726S300.269,256.17,297.8,254.936Z" transform="translate(-112.043 -99.4)" fill="#fff"/>
</svg>
